<?xml version="1.0" encoding="UTF-8" standalone="no"?>
<!-- Created with Inkscape (http://www.inkscape.org/) -->

<svg
   width="292.173"
   height="139.17024"
   viewBox="0 0 292.173 139.17024"
   version="1.1"
   id="svg1"
   inkscape:version="1.4.2 (f4327f4, 2025-05-13)"
   sodipodi:docname="logo.svg"
   xmlns:inkscape="http://www.inkscape.org/namespaces/inkscape"
   xmlns:sodipodi="http://sodipodi.sourceforge.net/DTD/sodipodi-0.dtd"
   xmlns="http://www.w3.org/2000/svg"
   xmlns:svg="http://www.w3.org/2000/svg">
  <sodipodi:namedview
     id="namedview1"
     pagecolor="#ffffff"
     bordercolor="#000000"
     borderopacity="0.25"
     inkscape:showpageshadow="false"
     inkscape:pageopacity="0.0"
     inkscape:pagecheckerboard="false"
     inkscape:deskcolor="#ffffff"
     inkscape:document-units="mm"
     inkscape:zoom="2.2168701"
     inkscape:cx="182.69"
     inkscape:cy="59.768951"
     inkscape:window-width="1920"
     inkscape:window-height="974"
     inkscape:window-x="-11"
     inkscape:window-y="-11"
     inkscape:window-maximized="1"
     inkscape:current-layer="layer1" />
  <defs
     id="defs1" />
  <g
     inkscape:label="Layer 1"
     inkscape:groupmode="layer"
     id="layer1"
     transform="translate(-2.4202541e-7,8.5848609)">
    <ellipse
       style="fill:#dc8add;stroke:none;stroke-width:4.79004;stroke-linecap:round;stroke-linejoin:round;stroke-miterlimit:0.5;stroke-dasharray:none"
       id="path16"
       cx="224.94986"
       cy="70.095703"
       rx="57.581741"
       ry="57.709217"
       transform="rotate(-2.9955024)" />
    <path
       d="M 4.4893285,78.057081 V 64.723848 Q 5.8094506,63.007689 7.1295727,61.291531 8.4760972,59.575372 9.7962193,57.885616 11.116341,56.169457 12.436464,54.453298 L 20.251586,44.341163 H 32.951161 L 16.50244,64.591836 h -1.003293 z m -8.1055496,5.62372 V 44.341163 H 7.3671947 v 8.448782 11.326647 5.201281 14.362928 z m 24.7390881,0 -9.478477,-15.815062 6.547806,-8.237562 15.498233,24.052624 z M 43.125486,44.341163 V 83.680801 H 32.56451 V 44.341163 Z m 9.69908,39.841285 q -2.798659,0 -4.937256,-0.897683 -2.138598,-0.897683 -3.35311,-2.719452 -1.214513,-1.821768 -1.214513,-4.594025 0,-2.349817 0.818476,-3.960366 0.818476,-1.636951 2.27061,-2.666646 1.478537,-1.056098 3.432317,-1.584147 1.953781,-0.554451 4.197989,-0.712866 2.455427,-0.158415 3.933963,-0.422439 1.50494,-0.290427 2.165001,-0.765671 0.660061,-0.475244 0.660061,-1.240915 v -0.105609 q 0,-0.607257 -0.396037,-1.056098 -0.396037,-0.448842 -1.108903,-0.686464 -0.686463,-0.264024 -1.663353,-0.264024 -1.029696,0 -1.795366,0.290427 -0.739269,0.290427 -1.161708,0.871281 -0.422439,0.554451 -0.528049,1.372926 h -9.663293 q 0.237622,-3.168293 1.821768,-5.359695 1.584147,-2.217805 4.514818,-3.35311 2.957073,-1.161708 7.234269,-1.161708 3.221098,0 5.676525,0.660061 2.481829,0.633659 4.145183,1.900976 1.689756,1.267317 2.534634,3.115488 0.844879,1.821769 0.844879,4.197988 V 83.680801 H 60.956518 V 79.77324 h -0.105609 q -0.924086,1.663354 -2.112196,2.640244 -1.18811,0.950488 -2.666646,1.346525 -1.452135,0.422439 -3.247501,0.422439 z m 3.432318,-6.574208 q 1.135305,0 2.191402,-0.422439 1.0825,-0.448842 1.768964,-1.29372 0.686463,-0.844878 0.686463,-2.085793 v -2.217805 q -0.396036,0.132012 -0.844878,0.264024 -0.422439,0.132013 -0.924085,0.264025 -0.501647,0.10561 -1.108903,0.237622 -0.607256,0.10561 -1.346524,0.237622 -1.0825,0.184817 -1.874574,0.554451 -0.76567,0.369634 -1.188109,0.924086 -0.42244,0.554451 -0.42244,1.267317 0,0.712866 0.396037,1.240915 0.396037,0.501646 1.0825,0.76567 0.686464,0.264025 1.584147,0.264025 z m 29.28969,6.785427 q -4.145183,0 -7.313476,-1.214512 -3.141891,-1.240915 -5.016464,-3.45872 -1.848171,-2.217805 -2.138598,-5.148476 h 10.402562 q 0.184817,1.240915 1.18811,2.032988 1.029695,0.765671 2.719452,0.765671 1.557744,0 2.402622,-0.475244 0.87128,-0.501647 0.87128,-1.320122 0,-0.686464 -0.76567,-1.135305 -0.765671,-0.448842 -2.349818,-0.712866 l -5.227683,-0.844878 q -4.197988,-0.686464 -6.415794,-2.798659 -2.191402,-2.112195 -2.191402,-5.491708 0,-2.877866 1.557744,-4.963659 1.584146,-2.112195 4.54122,-3.2475 2.983476,-1.135305 7.155062,-1.135305 4.22439,0 7.234269,1.214512 3.03628,1.18811 4.699634,3.379512 1.663354,2.191403 1.742561,5.227684 h -9.610488 q -0.0264,-1.214512 -1.082501,-2.032988 -1.029695,-0.818476 -2.561036,-0.818476 -1.531342,0 -2.349818,0.528049 -0.818475,0.501646 -0.818475,1.267317 0,0.660061 0.660061,1.135305 0.686463,0.448842 1.927378,0.660061 l 5.966952,1.003293 q 4.409207,0.739268 6.495,2.587439 2.112196,1.821769 2.112196,4.963659 0,2.957074 -1.716159,5.227684 -1.716159,2.244207 -4.831647,3.537927 -3.115488,1.267317 -7.287074,1.267317 z m 26.807866,0 q -4.14518,0 -7.31347,-1.214512 -3.14189,-1.240915 -5.01647,-3.45872 -1.848168,-2.217805 -2.138595,-5.148476 h 10.402565 q 0.18481,1.240915 1.18811,2.032988 1.02969,0.765671 2.71945,0.765671 1.55774,0 2.40262,-0.475244 0.87128,-0.501647 0.87128,-1.320122 0,-0.686464 -0.76567,-1.135305 -0.76567,-0.448842 -2.34982,-0.712866 l -5.22768,-0.844878 q -4.19799,-0.686464 -6.41579,-2.798659 -2.191406,-2.112195 -2.191406,-5.491708 0,-2.877866 1.557746,-4.963659 1.58414,-2.112195 4.54122,-3.2475 2.98347,-1.135305 7.15506,-1.135305 4.22439,0 7.23427,1.214512 3.03628,1.18811 4.69963,3.379512 1.66336,2.191403 1.74256,5.227684 h -9.61048 q -0.0264,-1.214512 -1.0825,-2.032988 -1.0297,-0.818476 -2.56104,-0.818476 -1.53134,0 -2.34982,0.528049 -0.81847,0.501646 -0.81847,1.267317 0,0.660061 0.66006,1.135305 0.68646,0.448842 1.92737,0.660061 l 5.96696,1.003293 q 4.4092,0.739268 6.495,2.587439 2.11219,1.821769 2.11219,4.963659 0,2.957074 -1.71616,5.227684 -1.71615,2.244207 -4.83164,3.537927 -3.11549,1.267317 -7.28708,1.267317 z m 27.41512,-0.07921 q -4.33,0 -7.68311,-1.848171 -3.35311,-1.874573 -5.25409,-5.174879 -1.87457,-3.300305 -1.87457,-7.551098 0,-4.277195 1.87457,-7.551098 1.87458,-3.300305 5.14848,-5.148476 3.30031,-1.874574 7.5775,-1.874574 3.2211,0 5.88775,1.056098 2.66664,1.029695 4.62042,2.957073 1.95378,1.900976 3.00988,4.514818 1.0825,2.613842 1.0825,5.755732 v 2.825062 H 128.07328 V 66.3608 h 21.28037 l -4.85805,1.029695 q 0,-1.478537 -0.55445,-2.508232 -0.55445,-1.056098 -1.58415,-1.610549 -1.0297,-0.554451 -2.50823,-0.554451 -1.45214,0 -2.50823,0.554451 -1.0297,0.554451 -1.58415,1.610549 -0.55445,1.029695 -0.55445,2.508232 v 4.673232 q 0,1.531342 0.58085,2.640244 0.60726,1.108903 1.71616,1.689756 1.13531,0.580854 2.69305,0.580854 1.1353,0 2.03299,-0.290427 0.92408,-0.290427 1.55774,-0.818475 0.63366,-0.554452 0.92409,-1.29372 h 9.34646 q -0.50164,2.851464 -2.50823,5.042866 -2.00659,2.191403 -5.06927,3.45872 -3.03628,1.240915 -6.70622,1.240915 z M 173.49487,64.67104 v 7.973538 H 155.06596 V 64.67104 Z"
       id="text1"
       style="font-weight:900;font-size:54.0722px;line-height:0.9;font-family:'Inter Variable';-inkscape-font-specification:'Inter Variable Heavy';letter-spacing:-3.39653px;white-space:pre;stroke-width:9.58005;stroke-linejoin:round;stroke-miterlimit:0.5"
       transform="rotate(-4.6624101)"
       aria-label="Klasse-" />
    <path
       d="m 21.201621,112.8059 v -12.46195 h 1.214513 l 7.075854,-9.082442 H 41.425892 L 29.597598,105.99407 h -2.957074 z m -9.452074,6.33659 V 79.802848 h 10.560977 v 39.339642 z m 18.006465,0 -6.653415,-10.825 6.81183,-7.39269 11.828294,18.21769 z m 18.887131,0.50164 q -2.798659,0 -4.937257,-0.89768 -2.138597,-0.89768 -3.35311,-2.71945 -1.214512,-1.82177 -1.214512,-4.59403 0,-2.34981 0.818476,-3.96036 0.818475,-1.63695 2.27061,-2.66665 1.478536,-1.0561 3.432317,-1.58415 1.953781,-0.55445 4.197988,-0.71286 2.455427,-0.15842 3.933964,-0.42244 1.504939,-0.29043 2.165,-0.76567 0.660061,-0.47525 0.660061,-1.24092 v -0.105606 q 0,-0.607256 -0.396036,-1.056098 -0.396037,-0.448841 -1.108903,-0.686463 -0.686463,-0.264025 -1.663354,-0.264025 -1.029695,0 -1.795366,0.290427 -0.739268,0.290427 -1.161707,0.871281 -0.422439,0.554451 -0.528049,1.372924 h -9.663294 q 0.237622,-3.16829 1.821769,-5.359693 1.584146,-2.217805 4.514817,-3.35311 2.957074,-1.161708 7.23427,-1.161708 3.221097,0 5.676525,0.660061 2.481829,0.633659 4.145183,1.900976 1.689756,1.267318 2.534634,3.115488 0.844878,1.821769 0.844878,4.197986 v 18.64013 H 56.775095 v -3.90756 h -0.10561 q -0.924085,1.66335 -2.112195,2.64024 -1.18811,0.95049 -2.666647,1.34652 -1.452134,0.42244 -3.2475,0.42244 z m 3.432318,-6.57421 q 1.135304,0 2.191402,-0.42243 1.0825,-0.44885 1.768964,-1.29372 0.686463,-0.84488 0.686463,-2.0858 v -2.2178 q -0.396036,0.13201 -0.844878,0.26402 -0.422439,0.13201 -0.924085,0.26403 -0.501647,0.10561 -1.108903,0.23762 -0.607256,0.10561 -1.346524,0.23762 -1.082501,0.18482 -1.874574,0.55445 -0.765671,0.36964 -1.18811,0.92409 -0.422439,0.55445 -0.422439,1.26731 0,0.71287 0.396037,1.24092 0.396037,0.50165 1.0825,0.76567 0.686463,0.26402 1.584147,0.26402 z M 87.490519,91.261508 V 99.28785 H 66.474176 V 91.261508 Z M 71.17381,83.657605 h 10.560977 v 25.293535 q 0,1.24092 0.475244,1.71616 0.501646,0.44884 1.953781,0.44884 0.712866,0 1.795366,0 1.108902,0 1.531341,0 v 8.02635 q -0.712865,0 -2.376219,0 -1.636952,0 -3.432318,0 -5.491708,0 -7.99994,-1.98019 -2.508232,-2.00658 -2.508232,-6.36299 z m 25.065301,35.986525 q -2.798659,0 -4.937256,-0.89768 -2.138598,-0.89768 -3.35311,-2.71945 -1.214513,-1.82177 -1.214513,-4.59403 0,-2.34981 0.818476,-3.96036 0.818476,-1.63695 2.27061,-2.66665 1.478537,-1.0561 3.432317,-1.58415 1.953781,-0.55445 4.197989,-0.71286 2.455427,-0.15842 3.933966,-0.42244 1.50494,-0.29043 2.165,-0.76567 0.66006,-0.47525 0.66006,-1.24092 v -0.105606 q 0,-0.607256 -0.39604,-1.056098 -0.39603,-0.448841 -1.1089,-0.686463 -0.68646,-0.264025 -1.66335,-0.264025 -1.0297,0 -1.79537,0.290427 -0.739269,0.290427 -1.161708,0.871281 -0.422439,0.554451 -0.528049,1.372924 H 87.89594 q 0.237622,-3.16829 1.821768,-5.359693 1.584147,-2.217805 4.514818,-3.35311 2.957073,-1.161708 7.234264,-1.161708 3.2211,0 5.67653,0.660061 2.48183,0.633659 4.14518,1.900976 1.68976,1.267318 2.53464,3.115488 0.84488,1.821769 0.84488,4.197986 v 18.64013 h -10.29696 v -3.90756 h -0.10561 q -0.92408,1.66335 -2.11219,2.64024 -1.18811,0.95049 -2.666648,1.34652 -1.452135,0.42244 -3.247501,0.42244 z m 3.432318,-6.57421 q 1.135301,0 2.191401,-0.42243 1.0825,-0.44885 1.76897,-1.29372 0.68646,-0.84488 0.68646,-2.0858 v -2.2178 q -0.39604,0.13201 -0.84488,0.26402 -0.42244,0.13201 -0.92409,0.26403 -0.50164,0.10561 -1.1089,0.23762 -0.60725,0.10561 -1.34652,0.23762 -1.082502,0.18482 -1.874576,0.55445 -0.76567,0.36964 -1.188109,0.92409 -0.422439,0.55445 -0.422439,1.26731 0,0.71287 0.396036,1.24092 0.396037,0.50165 1.0825,0.76567 0.686464,0.26402 1.584147,0.26402 z m 16.141281,17.10879 V 91.261508 h 10.45537 v 3.485122 h 0.13201 q 0.81848,-1.372927 1.92738,-2.27061 1.1353,-0.924085 2.58744,-1.372927 1.47853,-0.475244 3.2739,-0.475244 3.51153,0 6.17817,1.848171 2.69305,1.848171 4.22439,5.122074 1.53134,3.273906 1.53134,7.551096 0,4.43561 -1.50494,7.73592 -1.47853,3.2739 -4.17158,5.09567 -2.69305,1.79537 -6.36299,1.79537 -1.84817,0 -3.32671,-0.55446 -1.47853,-0.55445 -2.56103,-1.61055 -1.0825,-1.05609 -1.71616,-2.58743 h -0.10561 v 15.155 z m 15.1286,-18.69293 q 1.45213,0 2.45543,-0.76567 1.00329,-0.79208 1.53134,-2.21781 0.52805,-1.42573 0.52805,-3.35311 0,-1.92738 -0.52805,-3.32671 -0.52805,-1.39932 -1.53134,-2.164995 -1.0033,-0.792074 -2.45543,-0.792074 -1.42573,0 -2.56104,0.792074 -1.1089,0.765675 -1.74256,2.164995 -0.63366,1.39933 -0.63366,3.32671 0,1.92738 0.63366,3.35311 0.63366,1.42573 1.74256,2.21781 1.13531,0.76567 2.56104,0.76567 z m 24.66927,8.29037 q -3.08909,0 -5.20128,-1.32013 -2.0858,-1.34652 -3.14189,-3.80195 -1.0561,-2.45543 -1.0561,-5.80854 V 91.261508 h 10.56098 v 15.207802 q 0,2.0858 1.00329,3.2475 1.02969,1.13531 2.87786,1.13531 1.24092,0 2.1122,-0.52805 0.87128,-0.52805 1.32012,-1.58415 0.44884,-1.0825 0.44884,-2.69304 V 91.261508 h 10.56098 v 27.880982 h -10.42896 v -7.68311 h 1.37292 q -1.29372,3.64353 -3.74914,5.99335 -2.42903,2.32342 -6.67982,2.32342 z M 186.80125,79.802848 V 119.14249 H 176.24027 V 79.802848 Z m 20.68248,11.45866 V 99.28785 H 186.46739 V 91.261508 Z M 191.16702,83.657605 H 201.728 v 25.293535 q 0,1.24092 0.47524,1.71616 0.50165,0.44884 1.95379,0.44884 0.71286,0 1.79536,0 1.1089,0 1.53134,0 v 8.02635 q -0.71286,0 -2.37622,0 -1.63695,0 -3.43231,0 -5.49171,0 -7.99994,-1.98019 -2.50824,-2.00658 -2.50824,-6.36299 z m 29.73854,36.118545 q -4.33,0 -7.68311,-1.84818 -3.35311,-1.87457 -5.25408,-5.17487 -1.87458,-3.30031 -1.87458,-7.5511 0,-4.2772 1.87458,-7.551101 1.87457,-3.300305 5.14847,-5.148476 3.30031,-1.874574 7.5775,-1.874574 3.2211,0 5.88775,1.056098 2.66665,1.029695 4.62043,2.957074 1.95378,1.900975 3.00987,4.514817 1.0825,2.613842 1.0825,5.755732 v 2.82506 h -26.08561 v -5.91415 h 21.28037 l -4.85805,1.0297 q 0,-1.47854 -0.55445,-2.50823 -0.55445,-1.0561 -1.58415,-1.610551 -1.02969,-0.554451 -2.50823,-0.554451 -1.45213,0 -2.50823,0.554451 -1.0297,0.554451 -1.58415,1.610551 -0.55445,1.02969 -0.55445,2.50823 v 4.67323 q 0,1.53134 0.58086,2.64025 0.60725,1.1089 1.71615,1.68975 1.13531,0.58086 2.69305,0.58086 1.13531,0 2.03299,-0.29043 0.92409,-0.29043 1.55775,-0.81848 0.63365,-0.55445 0.92408,-1.29372 h 9.34647 q -0.50165,2.85147 -2.50824,5.04287 -2.00658,2.1914 -5.06927,3.45872 -3.03628,1.24092 -6.70622,1.24092 z m 24.9333,-15.41903 v 14.78537 H 235.27788 V 91.261508 h 10.42897 v 7.683111 h -1.37293 q 1.29372,-3.643537 3.74915,-5.966952 2.45542,-2.349818 6.67981,-2.349818 3.11549,0 5.20129,1.346525 2.08579,1.320122 3.14189,3.775549 1.05609,2.455427 1.05609,5.808537 v 17.58403 h -10.56097 v -15.20781 q 0,-2.1122 -1.0033,-3.2475 -1.00329,-1.135305 -2.87786,-1.135305 -1.24092,0 -2.1122,0.528045 -0.87128,0.52805 -1.32012,1.61055 -0.44884,1.0561 -0.44884,2.66665 z m 19.89042,2.32341 -1.00329,-26.877682 h 11.19464 l -1.0033,26.877682 z m 4.59403,12.9636 q -2.27061,0 -3.88116,-1.61055 -1.61055,-1.61054 -1.61055,-3.88115 0,-2.27061 1.61055,-3.88116 1.61055,-1.61055 3.88116,-1.61055 2.27061,0 3.88116,1.61055 1.61055,1.61055 1.61055,3.88116 0,2.27061 -1.61055,3.88115 -1.61055,1.61055 -3.88116,1.61055 z"
       id="text4"
       style="font-weight:900;font-size:54.0722px;line-height:0.9;font-family:'Inter Variable';-inkscape-font-specification:'Inter Variable Heavy';letter-spacing:-3.39653px;white-space:pre;stroke-width:9.58005;stroke-linejoin:round;stroke-miterlimit:0.5"
       transform="rotate(0.18468188)"
       aria-label="katapulten!" />
    <g
       id="g12"
       transform="matrix(0.53506124,-0.02799925,0.02815477,0.53803309,11.649388,-207.30414)"
       style="stroke-width:1.17943">
      <path
         style="fill:none;stroke:#000000;stroke-width:8.91535;stroke-linecap:butt;stroke-linejoin:round;stroke-miterlimit:0.5;stroke-dasharray:none"
         d="m 357.35265,389.18391 -21.85366,62.9256 52.96967,35.93302"
         id="path8" />
      <path
         style="fill:none;stroke:#000000;stroke-width:8.91535;stroke-linecap:butt;stroke-linejoin:round;stroke-miterlimit:0.5;stroke-dasharray:none"
         d="m 302.01511,499.47747 41.67675,-41.31822"
         id="path14"
         sodipodi:nodetypes="cc" />
      <path
         style="fill:none;stroke:#000000;stroke-width:8.91535;stroke-linecap:square;stroke-linejoin:round;stroke-miterlimit:0.5;stroke-dasharray:none"
         d="m 360.63632,536.92705 17.28789,-53.65102"
         id="path15"
         sodipodi:nodetypes="cc" />
    </g>
    <g
       id="g13"
       transform="matrix(0.27577235,0.32312495,-0.3225878,0.27531392,269.21513,-250.43724)"
       style="stroke-width:1.49294">
      <path
         style="fill:none;stroke:#000000;stroke-width:11.2852;stroke-linecap:butt;stroke-linejoin:round;stroke-miterlimit:0.5;stroke-dasharray:none"
         d="M 490.83861,438.1343 H 589.1614"
         id="path10" />
      <path
         style="fill:none;stroke:#000000;stroke-width:11.2852;stroke-linecap:butt;stroke-linejoin:round;stroke-miterlimit:0.5;stroke-dasharray:none"
         d="M 507.31664,532.01142 V 438.1343"
         id="path11" />
      <path
         style="fill:none;stroke:#000000;stroke-width:11.2852;stroke-linecap:butt;stroke-linejoin:round;stroke-miterlimit:0.5;stroke-dasharray:none"
         d="M 572.68337,532.01142 V 438.1343"
         id="path12" />
    </g>
  </g>
</svg>
