<?xml version="1.0" encoding="UTF-8" standalone="no"?>
<!-- Created with Inkscape (http://www.inkscape.org/) -->

<svg
   width="292.173"
   height="158.58487"
   viewBox="0 0 292.173 158.58487"
   version="1.1"
   id="svg1"
   inkscape:version="1.4.2 (ebf0e940d0, 2025-05-08)"
   sodipodi:docname="logo.svg"
   xmlns:inkscape="http://www.inkscape.org/namespaces/inkscape"
   xmlns:sodipodi="http://sodipodi.sourceforge.net/DTD/sodipodi-0.dtd"
   xmlns="http://www.w3.org/2000/svg"
   xmlns:svg="http://www.w3.org/2000/svg">
  <sodipodi:namedview
     id="namedview1"
     pagecolor="#ffffff"
     bordercolor="#000000"
     borderopacity="0.25"
     inkscape:showpageshadow="false"
     inkscape:pageopacity="0.0"
     inkscape:pagecheckerboard="false"
     inkscape:deskcolor="#ffffff"
     inkscape:document-units="mm"
     inkscape:zoom="2.2168701"
     inkscape:cx="182.91554"
     inkscape:cy="59.543408"
     inkscape:window-width="1920"
     inkscape:window-height="1011"
     inkscape:window-x="0"
     inkscape:window-y="0"
     inkscape:window-maximized="1"
     inkscape:current-layer="layer1" />
  <defs
     id="defs1" />
  <g
     inkscape:label="Layer 1"
     inkscape:groupmode="layer"
     id="layer1"
     transform="translate(-2.5269097e-7,8.5848609)">
    <ellipse
       style="fill:#dc8add;stroke:none;stroke-width:4.79004;stroke-linecap:round;stroke-linejoin:round;stroke-miterlimit:0.5;stroke-dasharray:none"
       id="path16"
       cx="224.94986"
       cy="70.095703"
       rx="57.581741"
       ry="57.709217"
       transform="rotate(-2.9955024)" />
    <path
       d="M 4.4893285,78.057081 V 64.723848 Q 5.8094506,63.007689 7.1295727,61.291531 8.4760972,59.575372 9.7962193,57.885616 11.116341,56.169457 12.436464,54.453298 L 20.251586,44.341163 H 32.951161 L 16.50244,64.591836 h -1.003293 z m -8.1055496,5.62372 V 44.341163 H 7.3671947 v 8.448782 11.326647 5.201281 14.362928 z m 24.7390881,0 -9.478477,-15.815062 6.547806,-8.237562 15.498233,24.052624 z M 43.125486,44.341163 V 83.680801 H 32.56451 V 44.341163 Z m 9.69908,39.841285 q -2.798659,0 -4.937256,-0.897683 -2.138598,-0.897683 -3.35311,-2.719452 -1.214513,-1.821768 -1.214513,-4.594025 0,-2.349817 0.818476,-3.960366 0.818476,-1.636951 2.27061,-2.666646 1.478537,-1.056098 3.432317,-1.584147 1.953781,-0.554451 4.197989,-0.712866 2.455427,-0.158415 3.933963,-0.422439 1.50494,-0.290427 2.165001,-0.765671 0.660061,-0.475244 0.660061,-1.240915 v -0.105609 q 0,-0.607257 -0.396037,-1.056098 -0.396037,-0.448842 -1.108903,-0.686464 -0.686463,-0.264024 -1.663353,-0.264024 -1.029696,0 -1.795366,0.290427 -0.739269,0.290427 -1.161708,0.871281 -0.422439,0.554451 -0.528049,1.372926 h -9.663293 q 0.237622,-3.168293 1.821768,-5.359695 1.584147,-2.217805 4.514818,-3.35311 2.957073,-1.161708 7.234269,-1.161708 3.221098,0 5.676525,0.660061 2.481829,0.633659 4.145183,1.900976 1.689756,1.267317 2.534634,3.115488 0.844879,1.821769 0.844879,4.197988 V 83.680801 H 60.956518 V 79.77324 h -0.105609 q -0.924086,1.663354 -2.112196,2.640244 -1.18811,0.950488 -2.666646,1.346525 -1.452135,0.422439 -3.247501,0.422439 z m 3.432318,-6.574208 q 1.135305,0 2.191402,-0.422439 1.0825,-0.448842 1.768964,-1.29372 0.686463,-0.844878 0.686463,-2.085793 v -2.217805 q -0.396036,0.132012 -0.844878,0.264024 -0.422439,0.132013 -0.924085,0.264025 -0.501647,0.10561 -1.108903,0.237622 -0.607256,0.10561 -1.346524,0.237622 -1.0825,0.184817 -1.874574,0.554451 -0.76567,0.369634 -1.188109,0.924086 -0.42244,0.554451 -0.42244,1.267317 0,0.712866 0.396037,1.240915 0.396037,0.501646 1.0825,0.76567 0.686464,0.264025 1.584147,0.264025 z m 29.28969,6.785427 q -4.145183,0 -7.313476,-1.214512 -3.141891,-1.240915 -5.016464,-3.45872 -1.848171,-2.217805 -2.138598,-5.148476 h 10.402562 q 0.184817,1.240915 1.18811,2.032988 1.029695,0.765671 2.719452,0.765671 1.557744,0 2.402622,-0.475244 0.87128,-0.501647 0.87128,-1.320122 0,-0.686464 -0.76567,-1.135305 -0.765671,-0.448842 -2.349818,-0.712866 l -5.227683,-0.844878 q -4.197988,-0.686464 -6.415794,-2.798659 -2.191402,-2.112195 -2.191402,-5.491708 0,-2.877866 1.557744,-4.963659 1.584146,-2.112195 4.54122,-3.2475 2.983476,-1.135305 7.155062,-1.135305 4.22439,0 7.234269,1.214512 3.03628,1.18811 4.699634,3.379512 1.663354,2.191403 1.742561,5.227684 h -9.610488 q -0.0264,-1.214512 -1.082501,-2.032988 -1.029695,-0.818476 -2.561036,-0.818476 -1.531342,0 -2.349818,0.528049 -0.818475,0.501646 -0.818475,1.267317 0,0.660061 0.660061,1.135305 0.686463,0.448842 1.927378,0.660061 l 5.966952,1.003293 q 4.409207,0.739268 6.495,2.587439 2.112196,1.821769 2.112196,4.963659 0,2.957074 -1.716159,5.227684 -1.716159,2.244207 -4.831647,3.537927 -3.115488,1.267317 -7.287074,1.267317 z m 26.807866,0 q -4.14518,0 -7.31347,-1.214512 -3.14189,-1.240915 -5.01647,-3.45872 -1.848168,-2.217805 -2.138595,-5.148476 h 10.402565 q 0.18481,1.240915 1.18811,2.032988 1.02969,0.765671 2.71945,0.765671 1.55774,0 2.40262,-0.475244 0.87128,-0.501647 0.87128,-1.320122 0,-0.686464 -0.76567,-1.135305 -0.76567,-0.448842 -2.34982,-0.712866 l -5.22768,-0.844878 q -4.19799,-0.686464 -6.41579,-2.798659 -2.191406,-2.112195 -2.191406,-5.491708 0,-2.877866 1.557746,-4.963659 1.58414,-2.112195 4.54122,-3.2475 2.98347,-1.135305 7.15506,-1.135305 4.22439,0 7.23427,1.214512 3.03628,1.18811 4.69963,3.379512 1.66336,2.191403 1.74256,5.227684 h -9.61048 q -0.0264,-1.214512 -1.0825,-2.032988 -1.0297,-0.818476 -2.56104,-0.818476 -1.53134,0 -2.34982,0.528049 -0.81847,0.501646 -0.81847,1.267317 0,0.660061 0.66006,1.135305 0.68646,0.448842 1.92737,0.660061 l 5.96696,1.003293 q 4.4092,0.739268 6.495,2.587439 2.11219,1.821769 2.11219,4.963659 0,2.957074 -1.71616,5.227684 -1.71615,2.244207 -4.83164,3.537927 -3.11549,1.267317 -7.28708,1.267317 z m 27.41512,-0.07921 q -4.33,0 -7.68311,-1.848171 -3.35311,-1.874573 -5.25409,-5.174879 -1.87457,-3.300305 -1.87457,-7.551098 0,-4.277195 1.87457,-7.551098 1.87458,-3.300305 5.14848,-5.148476 3.30031,-1.874574 7.5775,-1.874574 3.2211,0 5.88775,1.056098 2.66664,1.029695 4.62042,2.957073 1.95378,1.900976 3.00988,4.514818 1.0825,2.613842 1.0825,5.755732 v 2.825062 H 128.07328 V 66.3608 h 21.28037 l -4.85805,1.029695 q 0,-1.478537 -0.55445,-2.508232 -0.55445,-1.056098 -1.58415,-1.610549 -1.0297,-0.554451 -2.50823,-0.554451 -1.45214,0 -2.50823,0.554451 -1.0297,0.554451 -1.58415,1.610549 -0.55445,1.029695 -0.55445,2.508232 v 4.673232 q 0,1.531342 0.58085,2.640244 0.60726,1.108903 1.71616,1.689756 1.13531,0.580854 2.69305,0.580854 1.1353,0 2.03299,-0.290427 0.92408,-0.290427 1.55774,-0.818475 0.63366,-0.554452 0.92409,-1.29372 h 9.34646 q -0.50164,2.851464 -2.50823,5.042866 -2.00659,2.191403 -5.06927,3.45872 -3.03628,1.240915 -6.70622,1.240915 z m 33.72531,-19.643417 v 7.973538 h -18.42891 v -7.973538 z"
       id="text1"
       style="font-weight:900;font-size:54.0722px;line-height:0.9;font-family:'Inter Variable';-inkscape-font-specification:'Inter Variable Heavy';letter-spacing:-3.39653px;white-space:pre;stroke-width:9.58005;stroke-linejoin:round;stroke-miterlimit:0.5"
       transform="rotate(-4.6624101)"
       aria-label="Klasse-" />
    <path
       d="m 21.201621,112.8059 v -12.46195 h 1.214513 l 7.075854,-9.082442 H 41.425892 L 29.597598,105.99407 h -2.957074 z m -9.452074,6.33659 V 79.802848 h 10.560977 v 39.339642 z m 18.006465,0 -6.653415,-10.825 6.81183,-7.39269 11.828294,18.21769 z m 18.887131,0.50164 q -2.798659,0 -4.937257,-0.89768 -2.138597,-0.89768 -3.35311,-2.71945 -1.214512,-1.82177 -1.214512,-4.59403 0,-2.34981 0.818476,-3.96036 0.818475,-1.63695 2.27061,-2.66665 1.478536,-1.0561 3.432317,-1.58415 1.953781,-0.55445 4.197988,-0.71286 2.455427,-0.15842 3.933964,-0.42244 1.504939,-0.29043 2.165,-0.76567 0.660061,-0.47525 0.660061,-1.24092 v -0.105606 q 0,-0.607256 -0.396036,-1.056098 -0.396037,-0.448841 -1.108903,-0.686463 -0.686463,-0.264025 -1.663354,-0.264025 -1.029695,0 -1.795366,0.290427 -0.739268,0.290427 -1.161707,0.871281 -0.422439,0.554451 -0.528049,1.372924 h -9.663294 q 0.237622,-3.16829 1.821769,-5.359693 1.584146,-2.217805 4.514817,-3.35311 2.957074,-1.161708 7.23427,-1.161708 3.221097,0 5.676525,0.660061 2.481829,0.633659 4.145183,1.900976 1.689756,1.267318 2.534634,3.115488 0.844878,1.821769 0.844878,4.197986 v 18.64013 H 56.775095 v -3.90756 h -0.10561 q -0.924085,1.66335 -2.112195,2.64024 -1.18811,0.95049 -2.666647,1.34652 -1.452134,0.42244 -3.2475,0.42244 z m 3.432318,-6.57421 q 1.135304,0 2.191402,-0.42243 1.0825,-0.44885 1.768964,-1.29372 0.686463,-0.84488 0.686463,-2.0858 v -2.2178 q -0.396036,0.13201 -0.844878,0.26402 -0.422439,0.13201 -0.924085,0.26403 -0.501647,0.10561 -1.108903,0.23762 -0.607256,0.10561 -1.346524,0.23762 -1.082501,0.18482 -1.874574,0.55445 -0.765671,0.36964 -1.18811,0.92409 -0.422439,0.55445 -0.422439,1.26731 0,0.71287 0.396037,1.24092 0.396037,0.50165 1.0825,0.76567 0.686463,0.26402 1.584147,0.26402 z M 87.490519,91.261508 V 99.28785 H 66.474176 V 91.261508 Z M 71.17381,83.657605 h 10.560977 v 25.293535 q 0,1.24092 0.475244,1.71616 0.501646,0.44884 1.953781,0.44884 0.712866,0 1.795366,0 1.108902,0 1.531341,0 v 8.02635 q -0.712865,0 -2.376219,0 -1.636952,0 -3.432318,0 -5.491708,0 -7.99994,-1.98019 -2.508232,-2.00658 -2.508232,-6.36299 z m 25.065301,35.986525 q -2.798659,0 -4.937256,-0.89768 -2.138598,-0.89768 -3.35311,-2.71945 -1.214513,-1.82177 -1.214513,-4.59403 0,-2.34981 0.818476,-3.96036 0.818476,-1.63695 2.27061,-2.66665 1.478537,-1.0561 3.432317,-1.58415 1.953781,-0.55445 4.197989,-0.71286 2.455427,-0.15842 3.933966,-0.42244 1.50494,-0.29043 2.165,-0.76567 0.66006,-0.47525 0.66006,-1.24092 v -0.105606 q 0,-0.607256 -0.39604,-1.056098 -0.39603,-0.448841 -1.1089,-0.686463 -0.68646,-0.264025 -1.66335,-0.264025 -1.0297,0 -1.79537,0.290427 -0.739269,0.290427 -1.161708,0.871281 -0.422439,0.554451 -0.528049,1.372924 H 87.89594 q 0.237622,-3.16829 1.821768,-5.359693 1.584147,-2.217805 4.514818,-3.35311 2.957073,-1.161708 7.234264,-1.161708 3.2211,0 5.67653,0.660061 2.48183,0.633659 4.14518,1.900976 1.68976,1.267318 2.53464,3.115488 0.84488,1.821769 0.84488,4.197986 v 18.64013 h -10.29696 v -3.90756 h -0.10561 q -0.92408,1.66335 -2.11219,2.64024 -1.18811,0.95049 -2.666648,1.34652 -1.452135,0.42244 -3.247501,0.42244 z m 3.432318,-6.57421 q 1.135301,0 2.191401,-0.42243 1.0825,-0.44885 1.76897,-1.29372 0.68646,-0.84488 0.68646,-2.0858 v -2.2178 q -0.39604,0.13201 -0.84488,0.26402 -0.42244,0.13201 -0.92409,0.26403 -0.50164,0.10561 -1.1089,0.23762 -0.60725,0.10561 -1.34652,0.23762 -1.082502,0.18482 -1.874576,0.55445 -0.76567,0.36964 -1.188109,0.92409 -0.422439,0.55445 -0.422439,1.26731 0,0.71287 0.396036,1.24092 0.396037,0.50165 1.0825,0.76567 0.686464,0.26402 1.584147,0.26402 z m 16.141281,17.10879 V 91.261508 h 10.45537 v 3.485122 h 0.13201 q 0.81848,-1.372927 1.92738,-2.27061 1.1353,-0.924085 2.58744,-1.372927 1.47853,-0.475244 3.2739,-0.475244 3.51153,0 6.17817,1.848171 2.69305,1.848171 4.22439,5.122074 1.53134,3.273906 1.53134,7.551096 0,4.43561 -1.50494,7.73592 -1.47853,3.2739 -4.17158,5.09567 -2.69305,1.79537 -6.36299,1.79537 -1.84817,0 -3.32671,-0.55446 -1.47853,-0.55445 -2.56103,-1.61055 -1.0825,-1.05609 -1.71616,-2.58743 h -0.10561 v 15.155 z m 15.1286,-18.69293 q 1.45213,0 2.45543,-0.76567 1.00329,-0.79208 1.53134,-2.21781 0.52805,-1.42573 0.52805,-3.35311 0,-1.92738 -0.52805,-3.32671 -0.52805,-1.39932 -1.53134,-2.164995 -1.0033,-0.792074 -2.45543,-0.792074 -1.42573,0 -2.56104,0.792074 -1.1089,0.765675 -1.74256,2.164995 -0.63366,1.39933 -0.63366,3.32671 0,1.92738 0.63366,3.35311 0.63366,1.42573 1.74256,2.21781 1.13531,0.76567 2.56104,0.76567 z m 24.66927,8.29037 q -3.08909,0 -5.20128,-1.32013 -2.0858,-1.34652 -3.14189,-3.80195 -1.0561,-2.45543 -1.0561,-5.80854 V 91.261508 h 10.56098 v 15.207802 q 0,2.0858 1.00329,3.2475 1.02969,1.13531 2.87786,1.13531 1.24092,0 2.1122,-0.52805 0.87128,-0.52805 1.32012,-1.58415 0.44884,-1.0825 0.44884,-2.69304 V 91.261508 h 10.56098 v 27.880982 h -10.42896 v -7.68311 h 1.37292 q -1.29372,3.64353 -3.74914,5.99335 -2.42903,2.32342 -6.67982,2.32342 z M 186.80125,79.802848 V 119.14249 H 176.24027 V 79.802848 Z m 20.68248,11.45866 V 99.28785 H 186.46739 V 91.261508 Z M 191.16702,83.657605 H 201.728 v 25.293535 q 0,1.24092 0.47524,1.71616 0.50165,0.44884 1.95379,0.44884 0.71286,0 1.79536,0 1.1089,0 1.53134,0 v 8.02635 q -0.71286,0 -2.37622,0 -1.63695,0 -3.43231,0 -5.49171,0 -7.99994,-1.98019 -2.50824,-2.00658 -2.50824,-6.36299 z m 29.73854,36.118545 q -4.33,0 -7.68311,-1.84818 -3.35311,-1.87457 -5.25408,-5.17487 -1.87458,-3.30031 -1.87458,-7.5511 0,-4.2772 1.87458,-7.551101 1.87457,-3.300305 5.14847,-5.148476 3.30031,-1.874574 7.5775,-1.874574 3.2211,0 5.88775,1.056098 2.66665,1.029695 4.62043,2.957074 1.95378,1.900975 3.00987,4.514817 1.0825,2.613842 1.0825,5.755732 v 2.82506 h -26.08561 v -5.91415 h 21.28037 l -4.85805,1.0297 q 0,-1.47854 -0.55445,-2.50823 -0.55445,-1.0561 -1.58415,-1.610551 -1.02969,-0.554451 -2.50823,-0.554451 -1.45213,0 -2.50823,0.554451 -1.0297,0.554451 -1.58415,1.610551 -0.55445,1.02969 -0.55445,2.50823 v 4.67323 q 0,1.53134 0.58086,2.64025 0.60725,1.1089 1.71615,1.68975 1.13531,0.58086 2.69305,0.58086 1.13531,0 2.03299,-0.29043 0.92409,-0.29043 1.55775,-0.81848 0.63365,-0.55445 0.92408,-1.29372 h 9.34647 q -0.50165,2.85147 -2.50824,5.04287 -2.00658,2.1914 -5.06927,3.45872 -3.03628,1.24092 -6.70622,1.24092 z m 24.9333,-15.41903 v 14.78537 H 235.27788 V 91.261508 h 10.42897 v 7.683111 h -1.37293 q 1.29372,-3.643537 3.74915,-5.966952 2.45542,-2.349818 6.67981,-2.349818 3.11549,0 5.20129,1.346525 2.08579,1.320122 3.14189,3.775549 1.05609,2.455427 1.05609,5.808537 v 17.58403 h -10.56097 v -15.20781 q 0,-2.1122 -1.0033,-3.2475 -1.00329,-1.135305 -2.87786,-1.135305 -1.24092,0 -2.1122,0.528045 -0.87128,0.52805 -1.32012,1.61055 -0.44884,1.0561 -0.44884,2.66665 z m 19.89042,2.32341 -1.00329,-26.877682 h 11.19464 l -1.0033,26.877682 z m 4.59403,12.9636 q -2.27061,0 -3.88116,-1.61055 -1.61055,-1.61054 -1.61055,-3.88115 0,-2.27061 1.61055,-3.88116 1.61055,-1.61055 3.88116,-1.61055 2.27061,0 3.88116,1.61055 1.61055,1.61055 1.61055,3.88116 0,2.27061 -1.61055,3.88115 -1.61055,1.61055 -3.88116,1.61055 z"
       id="text4"
       style="font-weight:900;font-size:54.0722px;line-height:0.9;font-family:'Inter Variable';-inkscape-font-specification:'Inter Variable Heavy';letter-spacing:-3.39653px;white-space:pre;stroke-width:9.58005;stroke-linejoin:round;stroke-miterlimit:0.5"
       transform="rotate(0.18468188)"
       aria-label="katapulten!" />
    <g
       id="g12"
       transform="matrix(0.53506124,-0.02799925,0.02815477,0.53803309,11.649388,-207.30414)"
       style="stroke-width:1.17943">
      <path
         style="fill:none;stroke:#000000;stroke-width:8.91535;stroke-linecap:butt;stroke-linejoin:round;stroke-miterlimit:0.5;stroke-dasharray:none"
         d="m 357.35265,389.18391 -21.85366,62.9256 52.96967,35.93302"
         id="path8" />
      <path
         style="fill:none;stroke:#000000;stroke-width:8.91535;stroke-linecap:butt;stroke-linejoin:round;stroke-miterlimit:0.5;stroke-dasharray:none"
         d="m 302.01511,499.47747 41.67675,-41.31822"
         id="path14"
         sodipodi:nodetypes="cc" />
      <path
         style="fill:none;stroke:#000000;stroke-width:8.91535;stroke-linecap:square;stroke-linejoin:round;stroke-miterlimit:0.5;stroke-dasharray:none"
         d="m 360.63632,536.92705 17.28789,-53.65102"
         id="path15"
         sodipodi:nodetypes="cc" />
    </g>
    <g
       id="g13"
       transform="matrix(0.27577235,0.32312495,-0.3225878,0.27531392,269.21513,-250.43724)"
       style="stroke-width:1.49294">
      <path
         style="fill:none;stroke:#000000;stroke-width:11.2852;stroke-linecap:butt;stroke-linejoin:round;stroke-miterlimit:0.5;stroke-dasharray:none"
         d="M 490.83861,438.1343 H 589.1614"
         id="path10" />
      <path
         style="fill:none;stroke:#000000;stroke-width:11.2852;stroke-linecap:butt;stroke-linejoin:round;stroke-miterlimit:0.5;stroke-dasharray:none"
         d="M 507.31664,532.01142 V 438.1343"
         id="path11" />
      <path
         style="fill:none;stroke:#000000;stroke-width:11.2852;stroke-linecap:butt;stroke-linejoin:round;stroke-miterlimit:0.5;stroke-dasharray:none"
         d="M 572.68337,532.01142 V 438.1343"
         id="path12" />
    </g>
    <path
       d="m 12.002055,146.52892 v -12.37304 h 1.718939 l 5.098688,8.05493 q 0.166081,0.25742 0.415203,0.68093 0.257426,0.42351 0.548068,0.92175 0.290641,0.48994 0.556371,0.97157 l -0.141169,0.29895 q -0.01661,-0.44011 -0.04152,-1.0297 -0.01661,-0.58959 -0.02491,-1.12105 -0.0083,-0.53146 -0.0083,-0.78888 v -7.9885 h 1.494729 v 12.37304 h -1.735547 l -4.534013,-7.1581 q -0.182689,-0.29064 -0.498243,-0.79719 -0.30725,-0.50654 -0.722453,-1.19578 -0.415202,-0.68924 -0.905141,-1.51134 l 0.174385,-0.39859 q 0.04152,0.96327 0.05813,1.72724 0.02491,0.75567 0.03322,1.30374 0.0083,0.53976 0.0083,0.85531 v 7.17471 z m 12.040876,3.47109 v -1.24561 h 0.863622 q 0.274034,0 0.481635,-0.11626 0.215905,-0.10795 0.39029,-0.34046 0.174385,-0.23251 0.315554,-0.59789 l 0.481635,-1.24561 -3.396357,-8.69434 h 1.527946 l 1.893324,5.04886 q 0.240817,0.63111 0.465027,1.26222 0.224209,0.6311 0.43181,1.26221 h -0.373682 q 0.207601,-0.63111 0.431811,-1.26221 0.232513,-0.63111 0.465027,-1.26222 l 1.860108,-5.04886 h 1.503033 l -4.044074,10.39667 q -0.232513,0.58959 -0.589587,0.99649 -0.357075,0.4152 -0.822102,0.6311 -0.465027,0.21591 -1.021398,0.21591 -0.215906,0 -0.431811,0 -0.215905,0 -0.431811,0 z m 11.92462,-3.2718 q -1.287128,0 -2.200574,-0.58959 -0.905142,-0.58958 -1.386777,-1.61929 -0.481635,-1.038 -0.481635,-2.35835 0,-1.33695 0.506548,-2.37496 0.506547,-1.038 1.403384,-1.62759 0.896838,-0.59789 2.059406,-0.59789 0.913445,0 1.644202,0.33216 0.739061,0.33216 1.262216,0.94666 0.523156,0.6145 0.797189,1.46152 0.282338,0.83871 0.282338,1.8601 v 0.39029 H 32.64593 v -1.21239 h 6.419033 l -0.606196,0.42351 q 0,-0.89684 -0.323858,-1.55286 -0.315554,-0.66432 -0.896838,-1.0214 -0.581283,-0.36538 -1.370168,-0.36538 -0.780581,0 -1.361865,0.36538 -0.57298,0.35708 -0.896838,1.0214 -0.315554,0.65602 -0.315554,1.55286 v 0.59789 q 0,0.90514 0.30725,1.60268 0.315554,0.69754 0.913446,1.09614 0.597892,0.39029 1.453209,0.39029 0.622804,0 1.096135,-0.19099 0.473331,-0.1993 0.780581,-0.54807 0.315554,-0.34877 0.448419,-0.8055 h 1.411689 q -0.166081,0.83871 -0.689236,1.47813 -0.523156,0.6311 -1.312041,0.98818 -0.780581,0.35707 -1.735547,0.35707 z m 9.748959,3.2718 v -12.24017 h 1.378473 v 1.29543 h 0.01661 q 0.282338,-0.48994 0.714149,-0.8138 0.43181,-0.32386 0.96327,-0.48163 0.531459,-0.16609 1.096135,-0.16609 1.145959,0 2.001276,0.57298 0.855318,0.57298 1.328649,1.60269 0.473331,1.02139 0.473331,2.37496 0,1.34525 -0.473331,2.37495 -0.473331,1.0214 -1.328649,1.60269 -0.855317,0.57298 -2.001276,0.57298 -0.564676,0 -1.071223,-0.16608 -0.506547,-0.15778 -0.930054,-0.48994 -0.423507,-0.33217 -0.739061,-0.83871 h -0.01661 v 4.79974 z m 3.952729,-4.57553 q 0.763973,0 1.345257,-0.37369 0.581284,-0.37368 0.913446,-1.10444 0.332162,-0.73075 0.332162,-1.80197 0,-1.07953 -0.332162,-1.81029 -0.332162,-0.73075 -0.913446,-1.10444 -0.581284,-0.37368 -1.345257,-0.37368 -0.813797,0 -1.411689,0.4069 -0.597892,0.4069 -0.92175,1.14596 -0.323858,0.73906 -0.323858,1.73555 0,0.98818 0.323858,1.72724 0.323858,0.73906 0.92175,1.14596 0.597892,0.4069 1.411689,0.4069 z m 7.075053,-11.2686 v 12.37304 h -1.411689 v -12.37304 z m 4.766526,12.5059 q -0.871925,0 -1.561162,-0.29895 -0.689236,-0.29894 -1.096135,-0.88853 -0.398594,-0.59789 -0.398594,-1.46982 0,-0.75567 0.290642,-1.229 0.298946,-0.47333 0.788885,-0.73906 0.498243,-0.27403 1.121047,-0.4152 0.631108,-0.14117 1.287128,-0.22421 0.83871,-0.11626 1.320345,-0.17438 0.481635,-0.0581 0.680932,-0.191 0.207601,-0.13286 0.207601,-0.46502 v -0.083 q 0,-0.48163 -0.232513,-0.84701 -0.22421,-0.37368 -0.664324,-0.58128 -0.431811,-0.21591 -1.046311,-0.21591 -0.606196,0 -1.079527,0.2076 -0.465027,0.1993 -0.747365,0.54807 -0.274034,0.34877 -0.30725,0.78889 h -1.436601 q 0.04152,-0.8055 0.498243,-1.4283 0.456723,-0.63111 1.245608,-0.99649 0.788885,-0.36538 1.826892,-0.36538 0.763973,0 1.378473,0.20761 0.622804,0.2076 1.054614,0.58958 0.440115,0.38199 0.672629,0.91345 0.232513,0.53146 0.232513,1.17917 v 6.04536 h -1.395081 v -1.24561 h -0.03322 q -0.157777,0.31555 -0.465027,0.63941 -0.30725,0.31555 -0.830405,0.53146 -0.514851,0.2076 -1.312041,0.2076 z m 0.199298,-1.26222 q 0.863621,0 1.403385,-0.30725 0.539763,-0.31555 0.788885,-0.81379 0.249121,-0.49825 0.249121,-1.07123 v -1.09613 q -0.08304,0.0747 -0.30725,0.14117 -0.215905,0.0664 -0.539763,0.13286 -0.315554,0.0581 -0.689237,0.11626 -0.365378,0.0581 -0.73906,0.10795 -0.506547,0.0664 -0.96327,0.23252 -0.448419,0.15777 -0.730757,0.45672 -0.282338,0.29064 -0.282338,0.78888 0,0.4069 0.215906,0.70585 0.224209,0.29064 0.631108,0.44842 0.406898,0.15777 0.96327,0.15777 z m 8.984985,1.32865 q -0.938358,0 -1.702331,-0.30725 -0.763973,-0.30725 -1.237304,-0.93005 -0.473331,-0.63111 -0.53146,-1.58608 h 1.395081 q 0.07474,0.78059 0.597892,1.19579 0.523155,0.4152 1.444905,0.4152 0.913446,0 1.436601,-0.38199 0.53146,-0.38198 0.53146,-0.96327 0,-0.49824 -0.365378,-0.79718 -0.365379,-0.29895 -0.954967,-0.43182 l -1.411689,-0.33216 q -1.220695,-0.29064 -1.851803,-0.91344 -0.622804,-0.62281 -0.622804,-1.57777 0,-0.74737 0.398594,-1.32035 0.406899,-0.58128 1.121047,-0.90514 0.722453,-0.33216 1.660811,-0.33216 0.913446,0 1.635898,0.34877 0.730757,0.34046 1.154264,0.97157 0.431811,0.63111 0.456723,1.50304 h -1.378473 q -0.0083,-0.69754 -0.514851,-1.15427 -0.506548,-0.45672 -1.353561,-0.45672 -0.805493,0 -1.287128,0.39029 -0.481635,0.39029 -0.481635,0.95497 0,0.49824 0.365378,0.80549 0.365378,0.29895 0.996486,0.44842 l 1.411689,0.33216 q 1.262216,0.29895 1.851804,0.89684 0.589588,0.58959 0.589588,1.53625 0,0.8138 -0.440115,1.39508 -0.440115,0.58128 -1.204088,0.88853 -0.755668,0.30725 -1.710634,0.30725 z m 8.07154,0 q -0.938358,0 -1.70233,-0.30725 -0.763973,-0.30725 -1.237304,-0.93005 -0.473331,-0.63111 -0.53146,-1.58608 h 1.395081 q 0.07474,0.78059 0.597892,1.19579 0.523155,0.4152 1.444905,0.4152 0.913446,0 1.436601,-0.38199 0.53146,-0.38198 0.53146,-0.96327 0,-0.49824 -0.365379,-0.79718 -0.365378,-0.29895 -0.954966,-0.43182 l -1.411689,-0.33216 q -1.220695,-0.29064 -1.851804,-0.91344 -0.622804,-0.62281 -0.622804,-1.57777 0,-0.74737 0.398595,-1.32035 0.406899,-0.58128 1.121047,-0.90514 0.722453,-0.33216 1.660811,-0.33216 0.913446,0 1.635898,0.34877 0.730757,0.34046 1.154264,0.97157 0.43181,0.63111 0.456723,1.50304 h -1.378473 q -0.0083,-0.69754 -0.514852,-1.15427 -0.506547,-0.45672 -1.35356,-0.45672 -0.805493,0 -1.287128,0.39029 -0.481635,0.39029 -0.481635,0.95497 0,0.49824 0.365378,0.80549 0.365378,0.29895 0.996486,0.44842 l 1.411689,0.33216 q 1.262216,0.29895 1.851804,0.89684 0.589588,0.58959 0.589588,1.53625 0,0.8138 -0.440115,1.39508 -0.440115,0.58128 -1.204088,0.88853 -0.755669,0.30725 -1.710635,0.30725 z m 8.636213,0 q -1.287128,0 -2.200574,-0.58959 -0.905142,-0.58958 -1.386777,-1.61929 -0.481635,-1.038 -0.481635,-2.35835 0,-1.33695 0.506547,-2.37496 0.506547,-1.038 1.403385,-1.62759 0.896838,-0.59789 2.059405,-0.59789 0.913446,0 1.644203,0.33216 0.739061,0.33216 1.262216,0.94666 0.523155,0.6145 0.797189,1.46152 0.282338,0.83871 0.282338,1.8601 v 0.39029 h -7.207918 v -1.21239 h 6.419033 l -0.606196,0.42351 q 0,-0.89684 -0.323858,-1.55286 -0.315554,-0.66432 -0.896838,-1.0214 -0.581284,-0.36538 -1.370169,-0.36538 -0.780581,0 -1.361864,0.36538 -0.57298,0.35708 -0.896838,1.0214 -0.315554,0.65602 -0.315554,1.55286 v 0.59789 q 0,0.90514 0.30725,1.60268 0.315554,0.69754 0.913446,1.09614 0.597892,0.39029 1.453209,0.39029 0.622804,0 1.096135,-0.19099 0.473331,-0.1993 0.780581,-0.54807 0.315554,-0.34877 0.448419,-0.8055 h 1.411689 q -0.166081,0.83871 -0.689237,1.47813 -0.523155,0.6311 -1.31204,0.98818 -0.780581,0.35707 -1.735547,0.35707 z m 5.497284,-0.19929 v -8.76908 h 1.345257 v 1.37847 h 0.03322 q 0.240817,-0.68093 0.763973,-1.09614 0.523155,-0.4152 1.345256,-0.4152 0.190994,0 0.348771,0.0166 0.166081,0.0166 0.249121,0.0332 v 1.41169 q -0.08304,-0.0249 -0.323858,-0.0581 -0.232513,-0.0415 -0.539763,-0.0415 -0.481635,0 -0.896838,0.2242 -0.415203,0.22421 -0.664324,0.69755 -0.249122,0.47333 -0.249122,1.22069 v 5.39764 z m 3.836472,2.33343 0.730756,-4.06068 h 1.511338 l -1.212392,4.06068 z m 12.39795,-11.10251 v 1.21239 h -4.74991 v -1.21239 z m -3.18875,8.76908 v -10.33025 q 0,-0.6311 0.28234,-1.08783 0.28233,-0.45672 0.79718,-0.70584 0.52316,-0.24912 1.229,-0.24912 0.29065,0 0.54807,0 0.25743,0 0.33216,0 v 1.21239 q -0.0747,0 -0.34046,0 -0.25743,0 -0.4069,0 -0.55637,0 -0.79719,0.24082 -0.23251,0.24081 -0.23251,0.80549 v 10.11434 z m 8.02171,0.19929 q -1.21239,0 -2.13414,-0.58128 -0.91345,-0.58959 -1.4283,-1.61929 -0.50655,-1.0297 -0.50655,-2.36666 0,-1.34525 0.50655,-2.38326 0.51485,-1.03801 1.4283,-1.62759 0.92175,-0.58959 2.13414,-0.58959 1.2207,0 2.13414,0.58959 0.91345,0.58958 1.42,1.62759 0.51485,1.03801 0.51485,2.38326 0,1.33696 -0.51485,2.36666 -0.50655,1.0297 -1.42,1.61929 -0.91344,0.58128 -2.13414,0.58128 z m 0,-1.27882 q 0.83041,0 1.41999,-0.4069 0.58959,-0.4069 0.90515,-1.14596 0.31555,-0.74736 0.31555,-1.73555 0,-1.00479 -0.31555,-1.74385 -0.31556,-0.74736 -0.90515,-1.16257 -0.58958,-0.4152 -1.41999,-0.4152 -0.8221,0 -1.41999,0.4152 -0.58959,0.4069 -0.90514,1.15427 -0.31556,0.74736 -0.31556,1.75215 0,0.99649 0.31556,1.73555 0.31555,0.73906 0.90514,1.14596 0.58959,0.4069 1.41999,0.4069 z m 5.71319,1.07953 v -8.76908 h 1.34526 v 1.37847 h 0.0332 q 0.24082,-0.68093 0.76397,-1.09614 0.52316,-0.4152 1.34526,-0.4152 0.19099,0 0.34877,0.0166 0.16608,0.0166 0.24912,0.0332 v 1.41169 q -0.083,-0.0249 -0.32385,-0.0581 -0.23252,-0.0415 -0.53977,-0.0415 -0.48163,0 -0.89684,0.2242 -0.4152,0.22421 -0.66432,0.69755 -0.24912,0.47333 -0.24912,1.22069 v 5.39764 z m 6.89236,-5.13191 v 5.13191 h -1.41169 v -8.76908 h 1.37848 v 2.12583 h -0.3986 q 0.43181,-1.18748 1.19579,-1.73554 0.77227,-0.55638 1.81028,-0.55638 0.88853,0 1.61929,0.39029 0.73076,0.38199 1.16257,1.15427 0.44011,0.77228 0.44011,1.94315 v 5.44746 h -1.41169 v -5.34781 q 0,-1.13766 -0.54806,-1.71064 -0.53977,-0.58128 -1.52795,-0.58128 -0.63941,0 -1.16257,0.25742 -0.52315,0.25743 -0.83871,0.8138 -0.30725,0.54807 -0.30725,1.4366 z m 11.50943,5.3312 q -1.2124,0 -2.13415,-0.58128 -0.91344,-0.58959 -1.42829,-1.61929 -0.50655,-1.0297 -0.50655,-2.36666 0,-1.34525 0.50655,-2.38326 0.51485,-1.03801 1.42829,-1.62759 0.92175,-0.58959 2.13415,-0.58959 1.22069,0 2.13414,0.58959 0.91344,0.58958 1.41999,1.62759 0.51485,1.03801 0.51485,2.38326 0,1.33696 -0.51485,2.36666 -0.50655,1.0297 -1.41999,1.61929 -0.91345,0.58128 -2.13414,0.58128 z m 0,-1.27882 q 0.8304,0 1.41999,-0.4069 0.58959,-0.4069 0.90514,-1.14596 0.31555,-0.74736 0.31555,-1.73555 0,-1.00479 -0.31555,-1.74385 -0.31555,-0.74736 -0.90514,-1.16257 -0.58959,-0.4152 -1.41999,-0.4152 -0.82211,0 -1.42,0.4152 -0.58959,0.4069 -0.90514,1.15427 -0.31555,0.74736 -0.31555,1.75215 0,0.99649 0.31555,1.73555 0.31555,0.73906 0.90514,1.14596 0.58959,0.4069 1.42,0.4069 z m -3.39636,1.46151 -0.88023,-0.76397 7.67294,-8.76908 0.88023,0.76397 z m 8.84381,3.08911 v -1.24561 h 0.86362 q 0.27403,0 0.48163,-0.11626 0.21591,-0.10795 0.3903,-0.34046 0.17438,-0.23251 0.31555,-0.59789 l 0.48163,-1.24561 -3.39635,-8.69434 h 1.52794 l 1.89333,5.04886 q 0.24081,0.63111 0.46502,1.26222 0.22421,0.6311 0.43181,1.26221 h -0.37368 q 0.2076,-0.63111 0.43181,-1.26221 0.23252,-0.63111 0.46503,-1.26222 l 1.86011,-5.04886 h 1.50303 l -4.04407,10.39667 q -0.23252,0.58959 -0.58959,0.99649 -0.35708,0.4152 -0.8221,0.6311 -0.46503,0.21591 -1.0214,0.21591 -0.21591,0 -0.43181,0 -0.21591,0 -0.43181,0 z m 11.65889,-3.30501 q -1.13766,0 -2.00128,-0.57298 -0.85532,-0.58129 -1.32865,-1.60269 -0.47333,-1.0297 -0.47333,-2.37495 0,-1.35357 0.47333,-2.37496 0.47333,-1.02971 1.32865,-1.60269 0.86362,-0.57298 2.00128,-0.57298 0.57298,0 1.08783,0.16609 0.52315,0.15777 0.94666,0.48163 0.42351,0.32386 0.70584,0.8138 h 0.0166 v -4.89939 h 1.41169 v 12.37304 H 157.979 v -1.32865 h -0.0166 q -0.31555,0.50654 -0.74736,0.83871 -0.43182,0.33216 -0.94667,0.48994 -0.50654,0.16608 -1.07952,0.16608 z m 0.2159,-1.27052 q 0.8138,0 1.41169,-0.4069 0.59789,-0.4069 0.92175,-1.14596 0.32386,-0.73906 0.32386,-1.72724 0,-0.99649 -0.32386,-1.73555 -0.32386,-0.73906 -0.92175,-1.14596 -0.59789,-0.4069 -1.41169,-0.4069 -0.75567,0 -1.34525,0.37368 -0.58129,0.37369 -0.91345,1.10444 -0.33216,0.73076 -0.33216,1.81029 0,1.07122 0.33216,1.80197 0.33216,0.73076 0.91345,1.10444 0.58958,0.37369 1.34525,0.37369 z m 9.66593,1.30373 q -1.28713,0 -2.20057,-0.58959 -0.90515,-0.58958 -1.38678,-1.61929 -0.48164,-1.038 -0.48164,-2.35835 0,-1.33695 0.50655,-2.37496 0.50655,-1.038 1.40339,-1.62759 0.89683,-0.59789 2.0594,-0.59789 0.91345,0 1.6442,0.33216 0.73906,0.33216 1.26222,0.94666 0.52316,0.6145 0.79719,1.46152 0.28234,0.83871 0.28234,1.8601 v 0.39029 h -7.20792 v -1.21239 h 6.41903 l -0.60619,0.42351 q 0,-0.89684 -0.32386,-1.55286 -0.31556,-0.66432 -0.89684,-1.0214 -0.58128,-0.36538 -1.37017,-0.36538 -0.78058,0 -1.36186,0.36538 -0.57298,0.35708 -0.89684,1.0214 -0.31555,0.65602 -0.31555,1.55286 v 0.59789 q 0,0.90514 0.30725,1.60268 0.31555,0.69754 0.91344,1.09614 0.59789,0.39029 1.45321,0.39029 0.6228,0 1.09614,-0.19099 0.47333,-0.1993 0.78058,-0.54807 0.31555,-0.34877 0.44841,-0.8055 h 1.41169 q -0.16608,0.83871 -0.68923,1.47813 -0.52316,0.6311 -1.31204,0.98818 -0.78058,0.35707 -1.73555,0.35707 z m 11.0693,-3.35483 v -1.66912 h 0.10795 l 4.07729,-3.94442 h 1.82689 l -4.26828,4.15202 h -0.13286 z m -1.32034,3.15554 v -12.37304 h 1.41168 v 12.37304 z m 5.82114,0 -3.57075,-4.3015 0.99649,-0.97988 4.36793,5.28138 z m 4.21846,-12.37304 v 12.37304 h -1.41169 v -12.37304 z m 4.76652,12.5059 q -0.87193,0 -1.56116,-0.29895 -0.68924,-0.29894 -1.09614,-0.88853 -0.39859,-0.59789 -0.39859,-1.46982 0,-0.75567 0.29064,-1.229 0.29894,-0.47333 0.78888,-0.73906 0.49825,-0.27403 1.12105,-0.4152 0.63111,-0.14117 1.28713,-0.22421 0.83871,-0.11626 1.32034,-0.17438 0.48164,-0.0581 0.68094,-0.191 0.2076,-0.13286 0.2076,-0.46502 v -0.083 q 0,-0.48163 -0.23252,-0.84701 -0.22421,-0.37368 -0.66432,-0.58128 -0.43181,-0.21591 -1.04631,-0.21591 -0.6062,0 -1.07953,0.2076 -0.46503,0.1993 -0.74736,0.54807 -0.27404,0.34877 -0.30725,0.78889 h -1.4366 q 0.0415,-0.8055 0.49824,-1.4283 0.45672,-0.63111 1.24561,-0.99649 0.78888,-0.36538 1.82689,-0.36538 0.76397,0 1.37847,0.20761 0.6228,0.2076 1.05462,0.58958 0.44011,0.38199 0.67262,0.91345 0.23252,0.53146 0.23252,1.17917 v 6.04536 h -1.39508 v -1.24561 h -0.0332 q -0.15778,0.31555 -0.46503,0.63941 -0.30725,0.31555 -0.8304,0.53146 -0.51485,0.2076 -1.31204,0.2076 z m 0.19929,-1.26222 q 0.86363,0 1.40339,-0.30725 0.53976,-0.31555 0.78888,-0.81379 0.24913,-0.49825 0.24913,-1.07123 v -1.09613 q -0.083,0.0747 -0.30725,0.14117 -0.21591,0.0664 -0.53977,0.13286 -0.31555,0.0581 -0.68923,0.11626 -0.36538,0.0581 -0.73906,0.10795 -0.50655,0.0664 -0.96327,0.23252 -0.44842,0.15777 -0.73076,0.45672 -0.28234,0.29064 -0.28234,0.78888 0,0.4069 0.21591,0.70585 0.22421,0.29064 0.6311,0.44842 0.4069,0.15777 0.96327,0.15777 z m 8.98499,1.32865 q -0.93836,0 -1.70233,-0.30725 -0.76398,-0.30725 -1.23731,-0.93005 -0.47333,-0.63111 -0.53146,-1.58608 h 1.39508 q 0.0747,0.78059 0.59789,1.19579 0.52316,0.4152 1.44491,0.4152 0.91345,0 1.4366,-0.38199 0.53146,-0.38198 0.53146,-0.96327 0,-0.49824 -0.36538,-0.79718 -0.36538,-0.29895 -0.95496,-0.43182 l -1.41169,-0.33216 q -1.2207,-0.29064 -1.85181,-0.91344 -0.6228,-0.62281 -0.6228,-1.57777 0,-0.74737 0.39859,-1.32035 0.4069,-0.58128 1.12105,-0.90514 0.72245,-0.33216 1.66081,-0.33216 0.91345,0 1.6359,0.34877 0.73076,0.34046 1.15426,0.97157 0.43181,0.63111 0.45673,1.50304 h -1.37848 q -0.008,-0.69754 -0.51485,-1.15427 -0.50655,-0.45672 -1.35356,-0.45672 -0.80549,0 -1.28713,0.39029 -0.48163,0.39029 -0.48163,0.95497 0,0.49824 0.36538,0.80549 0.36537,0.29895 0.99648,0.44842 l 1.41169,0.33216 q 1.26222,0.29895 1.85181,0.89684 0.58958,0.58959 0.58958,1.53625 0,0.8138 -0.44011,1.39508 -0.44012,0.58128 -1.20409,0.88853 -0.75567,0.30725 -1.71063,0.30725 z m 8.07154,0 q -0.93835,0 -1.70233,-0.30725 -0.76397,-0.30725 -1.2373,-0.93005 -0.47333,-0.63111 -0.53146,-1.58608 h 1.39508 q 0.0747,0.78059 0.59789,1.19579 0.52316,0.4152 1.44491,0.4152 0.91344,0 1.4366,-0.38199 0.53146,-0.38198 0.53146,-0.96327 0,-0.49824 -0.36538,-0.79718 -0.36538,-0.29895 -0.95497,-0.43182 l -1.41168,-0.33216 q -1.2207,-0.29064 -1.85181,-0.91344 -0.6228,-0.62281 -0.6228,-1.57777 0,-0.74737 0.39859,-1.32035 0.4069,-0.58128 1.12105,-0.90514 0.72245,-0.33216 1.66081,-0.33216 0.91345,0 1.6359,0.34877 0.73075,0.34046 1.15426,0.97157 0.43181,0.63111 0.45672,1.50304 h -1.37847 q -0.008,-0.69754 -0.51485,-1.15427 -0.50655,-0.45672 -1.35356,-0.45672 -0.80549,0 -1.28713,0.39029 -0.48163,0.39029 -0.48163,0.95497 0,0.49824 0.36537,0.80549 0.36538,0.29895 0.99649,0.44842 l 1.41169,0.33216 q 1.26222,0.29895 1.8518,0.89684 0.58959,0.58959 0.58959,1.53625 0,0.8138 -0.44011,1.39508 -0.44012,0.58128 -1.20409,0.88853 -0.75567,0.30725 -1.71064,0.30725 z m 8.63621,0 q -1.28713,0 -2.20057,-0.58959 -0.90514,-0.58958 -1.38678,-1.61929 -0.48163,-1.038 -0.48163,-2.35835 0,-1.33695 0.50654,-2.37496 0.50655,-1.038 1.40339,-1.62759 0.89684,-0.59789 2.0594,-0.59789 0.91345,0 1.64421,0.33216 0.73906,0.33216 1.26221,0.94666 0.52316,0.6145 0.79719,1.46152 0.28234,0.83871 0.28234,1.8601 v 0.39029 h -7.20792 v -1.21239 h 6.41903 l -0.60619,0.42351 q 0,-0.89684 -0.32386,-1.55286 -0.31555,-0.66432 -0.89684,-1.0214 -0.58128,-0.36538 -1.37017,-0.36538 -0.78058,0 -1.36186,0.36538 -0.57298,0.35708 -0.89684,1.0214 -0.31555,0.65602 -0.31555,1.55286 v 0.59789 q 0,0.90514 0.30725,1.60268 0.31555,0.69754 0.91344,1.09614 0.5979,0.39029 1.45321,0.39029 0.62281,0 1.09614,-0.19099 0.47333,-0.1993 0.78058,-0.54807 0.31555,-0.34877 0.44842,-0.8055 h 1.41169 q -0.16608,0.83871 -0.68924,1.47813 -0.52315,0.6311 -1.31204,0.98818 -0.78058,0.35707 -1.73555,0.35707 z m 5.49729,-0.19929 v -8.76908 h 1.34526 v 1.37847 h 0.0332 q 0.24082,-0.68093 0.76397,-1.09614 0.52316,-0.4152 1.34526,-0.4152 0.19099,0 0.34877,0.0166 0.16608,0.0166 0.24912,0.0332 v 1.41169 q -0.083,-0.0249 -0.32386,-0.0581 -0.23251,-0.0415 -0.53976,-0.0415 -0.48164,0 -0.89684,0.2242 -0.4152,0.22421 -0.66432,0.69755 -0.24913,0.47333 -0.24913,1.22069 v 5.39764 z m 10.55445,0.14116 q -0.43181,0 -0.73906,-0.29894 -0.29894,-0.30725 -0.29894,-0.73906 0,-0.44012 0.29894,-0.73906 0.30725,-0.29895 0.73906,-0.29895 0.44012,0 0.73906,0.29895 0.29895,0.29894 0.29895,0.73906 0,0.43181 -0.29895,0.73906 -0.29894,0.29894 -0.73906,0.29894 z m 0,-6.51037 q -0.43181,0 -0.73906,-0.29895 -0.29894,-0.30725 -0.29894,-0.73906 0,-0.44011 0.29894,-0.73906 0.30725,-0.29895 0.73906,-0.29895 0.44012,0 0.73906,0.29895 0.29895,0.29895 0.29895,0.73906 0,0.43181 -0.29895,0.73906 -0.29894,0.29895 -0.73906,0.29895 z m 2.33343,8.8106 q 0.67263,-1.37017 1.10444,-2.61578 0.43181,-1.24561 0.63941,-2.41648 0.21591,-1.17087 0.21591,-2.32513 0,-1.27883 -0.24082,-2.68221 -0.23251,-1.41169 -0.67263,-2.79847 -0.44011,-1.39508 -1.04631,-2.60747 h 1.37848 q 0.58958,0.97157 1.038,2.32513 0.45673,1.35356 0.71415,2.8566 0.25743,1.49473 0.25743,2.90642 0,1.92654 -0.51485,3.80325 -0.50655,1.87672 -1.49473,3.55414 z"
       id="text16"
       style="font-size:17.0067px;line-height:0.9;font-family:'Inter Variable';-inkscape-font-specification:'Inter Variable';letter-spacing:0px;white-space:pre;stroke-width:4.79003;stroke-linecap:round;stroke-linejoin:round;stroke-miterlimit:0.5"
       aria-label="Nye plasser, fornøyde klasser :)" />
  </g>
</svg>
