<?xml version="1.0" encoding="UTF-8" standalone="no"?>
<svg
   height="16px"
   viewBox="0 0 16 16"
   width="16px"
   version="1.1"
   id="svg2"
   sodipodi:docname="tilbake.svg"
   inkscape:version="1.4.2 (ebf0e940d0, 2025-05-08)"
   xmlns:inkscape="http://www.inkscape.org/namespaces/inkscape"
   xmlns:sodipodi="http://sodipodi.sourceforge.net/DTD/sodipodi-0.dtd"
   xmlns="http://www.w3.org/2000/svg"
   xmlns:svg="http://www.w3.org/2000/svg">
  <defs
     id="defs2" />
  <sodipodi:namedview
     id="namedview2"
     pagecolor="#ffffff"
     bordercolor="#000000"
     borderopacity="0.25"
     inkscape:showpageshadow="2"
     inkscape:pageopacity="0.0"
     inkscape:pagecheckerboard="0"
     inkscape:deskcolor="#d1d1d1"
     inkscape:zoom="72.5"
     inkscape:cx="7.9931034"
     inkscape:cy="8"
     inkscape:current-layer="svg2" />
  <g
     fill="#222222"
     id="g2"
     style="fill:#000000">
    <path
       d="m 8.695312 11.71875 c -0.394531 0.382812 -1.027343 0.375 -1.414062 -0.019531 l -2.917969 -3 c -0.375 -0.390625 -0.375 -1.007813 0 -1.394531 l 2.917969 -3 c 0.386719 -0.398438 1.019531 -0.40625 1.414062 -0.019532 c 0.398438 0.382813 0.40625 1.015625 0.019532 1.414063 l -2.238282 2.300781 l 2.238282 2.304688 c 0.386718 0.394531 0.378906 1.027343 -0.019532 1.414062 z m 0 0"
       fill-rule="evenodd"
       id="path1"
       style="fill:#000000" />
    <path
       d="m 6 7 h 9 c 0.550781 0 1 0.449219 1 1 c 0 0.554688 -0.449219 1 -1 1 h -9 c -0.550781 0 -1 -0.445312 -1 -1 c 0 -0.550781 0.449219 -1 1 -1 z m 0 0"
       id="path2"
       style="fill:#000000" />
  </g>
</svg>
